<svg class="svg-icon" style="width: 1em; height: 1em;vertical-align: middle;fill: currentColor;overflow: hidden;" viewBox="0 0 1024 1024" version="1.1" xmlns="http://www.w3.org/2000/svg"><path d="M512 320c-17.6 0-32-14.4-32-32s14.4-32 32-32 32 14.4 32 32-14.4 32-32 32zM512 768c-17.6 0-32-14.4-32-32V416c0-17.6 14.4-32 32-32s32 14.4 32 32v320c0 17.6-14.4 32-32 32z" fill="" /><path d="M512 128c51.9 0 102.2 10.1 149.5 30.2 45.7 19.3 86.8 47 122.1 82.3s63 76.4 82.3 122.1c20 47.3 30.2 97.6 30.2 149.5S886 614.3 865.9 661.6c-19.3 45.7-47 86.8-82.3 122.1s-76.4 63-122.1 82.3c-47.3 20-97.6 30.2-149.5 30.2S409.8 886.1 362.5 866c-45.7-19.3-86.8-47-122.1-82.3s-63-76.4-82.3-122.1c-20-47.3-30.2-97.6-30.2-149.5s10.1-102.2 30.2-149.5c19.3-45.7 47-86.8 82.3-122.1s76.4-63 122.1-82.3c47.4-20 97.6-30.2 149.5-30.2m0-64C264.6 64 64 264.6 64 512s200.6 448 448 448 448-200.6 448-448S759.4 64 512 64z" fill="" /></svg>